<svg width="100" height="100" viewBox="0 0 100 100" fill="none" xmlns="http://www.w3.org/2000/svg">
<path d="M62.9588 53.5422C62.7036 53.2866 62.4005 53.0838 62.0669 52.9455C61.7333 52.8071 61.3757 52.7359 61.0145 52.7359C60.6533 52.7359 60.2957 52.8071 59.9621 52.9455C59.6285 53.0838 59.3254 53.2866 59.0703 53.5422L54.6785 57.9312C52.4125 57.2574 48.722 55.8109 46.456 53.5422C44.0525 51.1387 42.6775 47.3464 42.0725 45.3142L46.456 40.9307C46.7116 40.6755 46.9144 40.3725 47.0527 40.0388C47.1911 39.7052 47.2623 39.3476 47.2623 38.9864C47.2623 38.6253 47.1911 38.2677 47.0527 37.934C46.9144 37.6004 46.7116 37.2974 46.456 37.0422L35.456 26.0422C34.9303 25.546 34.2347 25.2695 33.5117 25.2695C32.7888 25.2695 32.0932 25.546 31.5675 26.0422L24.1177 33.4947C23.0672 34.5397 22.476 35.9807 22.5007 37.4464C22.5612 41.3597 23.5897 54.9557 34.3175 65.6834C45.037 76.4002 58.6413 77.4369 62.5573 77.5002H62.6343C64.0863 77.5002 65.4585 76.9282 66.498 75.8887L73.956 68.4307C74.2116 68.1755 74.4144 67.8725 74.5527 67.5388C74.6911 67.2052 74.7623 66.8476 74.7623 66.4864C74.7623 66.1253 74.6911 65.7676 74.5527 65.434C74.4144 65.1004 74.2116 64.7974 73.956 64.5422L62.9588 53.5422ZM62.6095 72.0002C59.1775 71.9424 47.435 71.0212 38.206 61.7922C28.944 52.5302 28.053 40.7492 28.0007 37.3887L33.5117 31.8749L40.6232 38.9864L37.0675 42.5422C36.413 43.1967 36.1325 44.1427 36.3222 45.0502C36.3882 45.3664 38.0025 52.8657 42.5675 57.4307C47.1325 61.9957 54.6317 63.6099 54.948 63.6759C55.395 63.7713 55.8588 63.7531 56.297 63.6229C56.7351 63.4927 57.1336 63.2547 57.456 62.9307L61.0117 59.3749L68.1232 66.4864L62.6095 72.0002Z" fill="#C6A47E"/>
<path d="M60.4381 35.6752L52.7656 28V47.2362H72.0019L64.3266 39.5637L76.7099 27.1805L72.8214 23.292L60.4381 35.6752Z" fill="#C6A47E"/>
<circle cx="50" cy="50" r="48.5" stroke="#C6A47E" stroke-width="3"/>
</svg>
