<svg width="100" height="100" viewBox="0 0 100 100" fill="none" xmlns="http://www.w3.org/2000/svg">
<path d="M76.8125 27.3125H23.1875C22.0467 27.3125 21.125 28.2342 21.125 29.375V70.625C21.125 71.7658 22.0467 72.6875 23.1875 72.6875H76.8125C77.9533 72.6875 78.875 71.7658 78.875 70.625V29.375C78.875 28.2342 77.9533 27.3125 76.8125 27.3125ZM74.2344 34.4539V68.0469H25.7656V34.4539L23.9867 33.0682L26.5197 29.8133L29.2783 31.9596H70.7281L73.4867 29.8133L76.0197 33.0682L74.2344 34.4539V34.4539ZM70.7281 31.9531L50 48.0664L29.2719 31.9531L26.5133 29.8068L23.9803 33.0617L25.7592 34.4475L47.7764 51.5662C48.4095 52.0581 49.1885 52.3252 49.9903 52.3252C50.7921 52.3252 51.5711 52.0581 52.2043 51.5662L74.2344 34.4539L76.0133 33.0682L73.4803 29.8133L70.7281 31.9531Z" fill="#C6A47E"/>
<circle cx="50" cy="50" r="48.5" stroke="#C6A47E" stroke-width="3"/>
</svg>
