<svg width="32" height="32" viewBox="0 0 32 32" fill="none" xmlns="http://www.w3.org/2000/svg">
<g clip-path="url(#clip0_339_572)">
<path d="M15.9998 -0.0341797C7.15884 -0.0341797 -0.0351562 7.15782 -0.0351562 15.9998C-0.0351562 24.8418 7.15884 32.0338 15.9998 32.0338C24.8408 32.0338 32.0348 24.8418 32.0348 15.9998C32.0348 7.15782 24.8408 -0.0341797 15.9998 -0.0341797ZM15.9998 30.9658C7.74784 30.9658 1.03484 24.2518 1.03484 15.9998C1.03484 7.74782 7.74784 1.03382 15.9998 1.03382C24.2518 1.03382 30.9648 7.74782 30.9648 15.9998C30.9648 24.2518 24.2518 30.9658 15.9998 30.9658Z" fill="#C6A47E"/>
<path d="M16.005 11.8777C15.1887 11.8777 14.3907 12.1198 13.712 12.5733C13.0333 13.0268 12.5043 13.6714 12.1919 14.4256C11.8795 15.1797 11.7978 16.0096 11.957 16.8102C12.1163 17.6108 12.5094 18.3462 13.0866 18.9234C13.6638 19.5006 14.3992 19.8937 15.1998 20.053C16.0004 20.2122 16.8303 20.1305 17.5844 19.8181C18.3386 19.5057 18.9832 18.9767 19.4367 18.298C19.8902 17.6193 20.1323 16.8213 20.1323 16.005C20.1323 14.9104 19.6975 13.8606 18.9234 13.0866C18.1494 12.3125 17.0996 11.8777 16.005 11.8777ZM16.005 19.3819C15.3371 19.3819 14.6842 19.1838 14.1289 18.8128C13.5736 18.4417 13.1408 17.9143 12.8852 17.2973C12.6296 16.6802 12.5627 16.0013 12.693 15.3462C12.8233 14.6912 13.1449 14.0895 13.6172 13.6172C14.0895 13.1449 14.6912 12.8233 15.3462 12.693C16.0013 12.5627 16.6802 12.6296 17.2973 12.8852C17.9143 13.1408 18.4417 13.5736 18.8128 14.1289C19.1838 14.6842 19.3819 15.3371 19.3819 16.005C19.3819 16.9006 19.0261 17.7595 18.3928 18.3928C17.7595 19.0261 16.9006 19.3819 16.005 19.3819ZM20.1323 7H11.8777C10.5841 7 9.3434 7.5139 8.42865 8.42865C7.5139 9.3434 7 10.5841 7 11.8777V20.1323C7 20.7728 7.12617 21.4071 7.37129 21.9989C7.61642 22.5907 7.97571 23.1284 8.42865 23.5814C9.3434 24.4961 10.5841 25.01 11.8777 25.01H20.1323C20.7728 25.01 21.4071 24.8838 21.9989 24.6387C22.5907 24.3936 23.1284 24.0343 23.5814 23.5814C24.0343 23.1284 24.3936 22.5907 24.6387 21.9989C24.8838 21.4071 25.01 20.7728 25.01 20.1323V11.8777C25.01 11.2372 24.8838 10.6029 24.6387 10.0111C24.3936 9.4193 24.0343 8.88158 23.5814 8.42865C23.1284 7.97571 22.5907 7.61642 21.9989 7.37129C21.4071 7.12617 20.7728 7 20.1323 7ZM24.2596 20.1323C24.2596 21.2269 23.8247 22.2767 23.0507 23.0507C22.2767 23.8247 21.2269 24.2596 20.1323 24.2596H11.8777C10.7831 24.2596 9.73329 23.8247 8.95927 23.0507C8.18526 22.2767 7.75042 21.2269 7.75042 20.1323V11.8777C7.75042 10.7831 8.18526 9.73329 8.95927 8.95927C9.73329 8.18526 10.7831 7.75042 11.8777 7.75042H20.1323C21.2269 7.75042 22.2767 8.18526 23.0507 8.95927C23.8247 9.73329 24.2596 10.7831 24.2596 11.8777V20.1323ZM21.6331 11.1273C21.6331 11.2757 21.5891 11.4208 21.5067 11.5442C21.4242 11.6676 21.307 11.7638 21.1699 11.8206C21.0328 11.8774 20.8819 11.8922 20.7363 11.8633C20.5907 11.8343 20.457 11.7629 20.3521 11.6579C20.2471 11.553 20.1757 11.4193 20.1467 11.2737C20.1178 11.1281 20.1326 10.9772 20.1894 10.8401C20.2462 10.703 20.3424 10.5858 20.4658 10.5033C20.5892 10.4209 20.7343 10.3769 20.8827 10.3769C21.0817 10.3769 21.2726 10.4559 21.4133 10.5967C21.5541 10.7374 21.6331 10.9283 21.6331 11.1273Z" fill="#C6A47E"/>
</g>
<defs>
<clipPath id="clip0_339_572">
<rect width="32" height="32" fill="white"/>
</clipPath>
</defs>
</svg>
