<svg width="72" height="72" viewBox="0 0 72 72" fill="none" xmlns="http://www.w3.org/2000/svg">
<rect width="72" height="72" rx="10" fill="#2C3238"/>
<path d="M20.8923 25.4055C22.8666 21.9709 26.9162 19.7606 30.89 20.0244C33.4572 20.0369 35.8226 21.3053 37.7717 22.8751C40.5786 25.3176 41.5058 29.1981 41.3986 32.7772C42.9251 29.9013 44.5398 27.0569 46.3123 24.3192C49.4283 20.1625 55.7108 18.6492 60.246 21.3681C63.7972 23.1262 65.9923 27.0758 65.9923 30.9751C66.0175 37.273 65.9797 43.5709 66.0112 49.8688C66.016 50.8227 66.0112 51.4794 66.0112 52.6567C62.5714 52.6567 58.6942 52.6567 55.2692 52.6567C54.8214 46.0511 55.162 39.4141 55.0863 32.8023C54.6889 31.7599 54.5186 30.5355 53.6103 29.7758C51.7369 28.0679 48.3371 28.4572 47.1008 30.7553C42.7422 38.0202 38.7052 45.4923 34.2268 52.6881C32.9085 52.4683 30.7071 53.5044 30.2277 51.7651C30.0574 45.2851 30.2908 38.7988 30.1268 32.3188C30.1394 29.0725 25.5285 27.5592 23.3334 29.7004C21.8763 31.0755 21.1762 33.0032 20.1417 34.6734C16.5905 40.6448 13.2411 46.7355 9.60154 52.6567C8.46615 52.6944 7.32446 52.7132 6.18907 52.7446C6.00317 52.7446 5.23654 52.7446 5 52.7446C5 52.5091 5.38731 51.9685 5.4763 51.8216C10.7558 43.0999 15.7263 34.1899 20.8923 25.4055Z" fill="#C1A17D"/>
</svg>
