<svg width="493" height="500" viewBox="0 0 493 500" fill="none" xmlns="http://www.w3.org/2000/svg">
<path d="M150.333 21.3C194.907 1.33999 245.76 -4.51334 293.613 5.5C306.6 7.32666 318.813 12.26 331.16 16.4467C364.187 29.62 394.787 49.1933 419.693 74.6467C437.133 92.9533 452.68 113.3 464.013 135.98C479.147 165.353 489.12 197.647 491.64 230.66C455.92 230.687 420.2 230.713 384.467 230.753C378.347 230.327 371.973 235.58 372.547 242.007C372.427 247.447 377.613 251.86 382.92 251.5C419.267 251.473 455.627 251.553 491.973 251.447C491.133 261.407 493.973 272.26 489 281.473C486.253 287.02 479.853 290.18 473.813 290.233C428.96 290.313 384.107 290.113 339.253 290.273C341.56 276.953 343.187 263.233 340.427 249.86C338.667 237.167 333.133 225.447 327.173 214.26C316.613 195.14 300.76 179.793 288.267 162.02C282.453 153.607 276.173 145.513 270.8 136.793C260.88 120.313 252.893 102.687 247 84.38C246.32 82.2467 245.987 80.0333 245.667 77.8333C243.187 85.5667 240.853 93.3533 237.88 100.913C232.36 117.233 223.16 131.953 214.147 146.527C195.56 175.62 168.027 199.1 155.56 231.967C148.693 250.513 147.52 271.007 151.973 290.287C107.2 290.167 62.4132 290.26 17.6399 290.18C9.33321 290.06 2.5332 283.007 1.2532 275.06C0.35987 267.247 1.11987 259.353 0.999872 251.513C36.8399 251.473 72.6932 251.473 108.533 251.5C114.733 251.673 119.827 245.287 118.427 239.273C117.36 234.247 112.267 230.513 107.173 230.633C71.9732 230.793 36.7599 230.487 1.54654 230.833C2.83987 213.74 5.37321 196.647 10.6932 180.313C18.2532 155.02 29.5599 130.74 44.8399 109.167C70.5332 70.5267 107.72 39.6467 150.333 21.3ZM181.747 47.8467C168.6 51.7933 156.133 57.5667 144 63.94C173.92 63.9667 203.84 63.86 233.747 63.8467C272.147 63.7133 310.547 64.2067 348.92 63.66C335.827 57.5133 322.453 51.9267 308.587 47.7667C301.533 45.7 294.62 44.3 287.093 42.78C272.337 39.8 260 37.8 246.12 37.8C233.488 37.7907 224.12 37.8 211.12 39.8C201.28 41.3139 190.387 44.98 181.747 47.8467ZM106.16 91.7C101.587 91.9667 97.6265 95.6867 96.3332 99.98C94.8265 105.687 99.7732 112.14 105.76 111.86C135.12 112.153 164.48 111.913 193.84 112.02C196.347 111.94 199.08 112.22 201.28 110.753C206.747 108.1 208.4 100.033 204.187 95.5667C201.96 92.9533 198.707 91.1667 195.2 91.5133C165.52 91.5667 135.827 91.4333 106.16 91.7ZM287.547 95.6467C282.427 101.527 287.307 111.98 295.053 111.873C325.747 112.14 356.453 112.02 387.147 111.927C391.333 112.313 395.507 109.007 396.053 104.847C397.747 98.3133 392.2 91.9267 385.733 91.6333C375.533 91.3667 365.32 91.6733 355.12 91.46C351.56 91.5267 348 91.5 344.453 91.42C340.453 91.54 336.453 91.5533 332.453 91.42C324 91.9133 315.56 90.7533 307.107 91.3667C300.533 91.38 292.173 89.7 287.547 95.6467ZM71.4132 138.38C66.1999 139.313 62.1332 144.62 62.5732 149.913C62.8265 154.82 67.4132 159.18 72.3732 158.927C102.573 158.833 132.773 158.953 162.973 158.86C168.347 159.087 172.667 153.94 172.307 148.74C173.067 142.38 166.387 137.38 160.44 138.18C130.76 138.353 101.067 137.953 71.4132 138.38ZM328.853 138.447C323.653 139.353 319 144.527 319.693 149.967C319.973 154.993 324.853 158.993 329.773 158.833C360.413 158.847 391.067 158.967 421.707 158.833C425.867 158.927 429.173 155.26 430.2 151.487C431.84 144.38 424.8 137.62 417.853 138.233C388.187 138.407 358.507 138.06 328.853 138.447ZM50.4532 185.367C46.4265 186.927 42.7065 190.593 43.2665 195.26C42.6132 201.1 48.2532 205.873 53.8265 205.58C76.5065 205.66 99.1999 205.66 121.88 205.58C127.36 205.9 132.627 200.887 132.373 195.353C132.453 189.3 126.347 184.473 120.493 184.953C99.1332 184.927 77.7865 184.953 56.4399 184.9C54.4399 184.98 52.3865 184.767 50.4532 185.367ZM368.787 185.127C364.973 185.793 361.467 188.767 360.533 192.593C358.547 198.473 363.08 206.18 369.72 205.633C392.867 205.673 416.027 205.66 439.173 205.553C445.507 206.153 451.6 199.713 449.773 193.393C448.813 188.02 443.133 184.34 437.84 184.927C414.827 185.167 391.8 184.713 368.787 185.127Z" fill="white"/>
<path d="M290.227 227.867C296.48 224.6 303.787 227.853 308.347 232.507C314.227 238.6 317.267 246.867 318.84 255.067C324.533 289.64 302.147 327.187 268.093 336.853C247.893 343.587 225.24 340.253 206.787 330.067C193.76 322.92 183.92 310.947 177.467 297.733C174.707 291.96 173.053 285.36 174.32 278.973C175.693 272.093 183.013 267.013 189.933 267.96C196.067 269.267 201.093 273.96 203.493 279.68C206.107 286.027 208.96 292.533 214.147 297.24C222.253 305.613 234.133 309.28 245.587 309.093C269.56 310.253 290.867 286.52 287.92 262.867C287.92 256.867 284.027 252.067 281.787 246.787C278.813 239.507 282.88 230.573 290.227 227.867Z" fill="white"/>
<path d="M24.8131 323.667C26.1998 317.947 31.8531 313.827 37.7064 314.2C78.4931 314.027 119.293 314.04 160.08 314.107C166.066 324.6 173.76 333.987 182.466 342.347C134.626 342.24 86.7864 342.253 38.9598 342.52C29.5864 342.76 22.0664 332.547 24.8131 323.667Z" fill="white"/>
<path d="M330.72 314.16C371.706 313.96 412.693 314.187 453.693 314.107C464.093 313.133 471.493 326.787 465.88 335.24C462.96 340.44 456.786 342.987 451 342.547C404 342.16 356.973 342.587 309.973 342.147C317.826 333.56 325.013 324.32 330.72 314.16Z" fill="white"/>
<path d="M68.8799 365.173C103.813 364.573 138.773 364.907 173.72 364.733C255.907 364.533 338.107 364.827 420.293 364.88C429.773 364.32 437.493 375.6 433.48 384.213C431.413 389.467 426.107 393.613 420.293 393.173C304.293 392.72 188.28 392.707 72.2799 393.24C65.4532 393.613 58.7332 388.387 57.6266 381.613C55.7332 374.187 61.3199 366.12 68.8799 365.173Z" fill="white"/>
<path d="M175.667 416C178.933 415.267 182.307 415.373 185.64 415.32C227.453 415.36 269.267 415.293 311.08 415.36C320.787 414.747 327.787 426.307 324.187 434.947C321.973 440.6 315.813 444.333 309.76 443.88C266.613 443.893 223.467 443.867 180.333 443.893C175.267 444.16 170.6 440.973 167.987 436.813C163.587 429.44 167.373 418.6 175.667 416Z" fill="white"/>
<path d="M100.826 416.96C106.32 413.933 113.186 417.48 115.56 422.84C116.88 427.44 116.213 433.187 111.72 435.813C106.72 439.96 98.4531 437.827 95.9064 431.92C93.0531 426.68 95.3065 419.36 100.826 416.96Z" fill="white"/>
<path d="M379.813 417.2C386.28 413.04 395.12 418.36 395.933 425.613C397.88 433.853 387.08 441.467 380.066 436.573C373.053 432.76 372.826 421.187 379.813 417.2Z" fill="white"/>
<path d="M128.96 464.333C128.2 458.56 132.467 453.08 137.707 451.16C141.547 449.787 145.36 451.773 148.773 453.347C173.88 466.787 204.5 469 231.5 470.5C238.167 470.66 243.347 470.687 250 470.5C267 470.74 285.026 467.587 301.96 465.947C315.6 463.693 329.253 460.267 341.48 453.627C344.706 452.027 348.386 449.933 352.08 451.267C359.52 452.693 363.52 461.72 360.507 468.44C358.587 471.84 355.173 473.987 351.813 475.773C338.44 482.773 324.226 488.28 309.453 491.427C263.626 503.053 214.8 501.293 169.493 488.173C157.547 484.547 145.867 479.893 135.013 473.693C131.64 471.813 128.707 468.387 128.96 464.333Z" fill="white"/>
</svg>
