<svg width="129" height="70" viewBox="0 0 129 70" fill="none" xmlns="http://www.w3.org/2000/svg">
<path d="M33.5935 11.4784C37.7668 4.18507 46.3268 -0.508259 54.7268 0.0517411C60.1535 0.0784077 65.1535 2.77174 69.2735 6.10507C75.2068 11.2917 77.1668 19.5317 76.9401 27.1317C80.1668 21.0251 83.5802 14.9851 87.3268 9.17174C93.9135 0.345072 107.193 -2.86826 116.78 2.90507C124.287 6.6384 128.927 15.0251 128.927 23.3051C128.98 36.6784 128.9 50.0517 128.967 63.4251C128.977 65.4506 128.967 66.8451 128.967 69.3451C121.696 69.3451 113.5 69.3451 106.26 69.3451C105.313 55.3184 106.033 41.2251 105.873 27.1851C105.033 24.9717 104.673 22.3717 102.753 20.7584C98.7935 17.1317 91.6068 17.9584 88.9935 22.8384C79.7802 38.2651 71.2468 54.1317 61.7802 69.4117C58.9935 68.9451 54.3402 71.1451 53.3268 67.4517C52.9668 53.6917 53.4602 39.9184 53.1135 26.1584C53.1402 19.2651 43.3935 16.0517 38.7535 20.5984C35.6735 23.5184 34.1935 27.6117 32.0068 31.1584C24.5002 43.8384 17.4202 56.7717 9.72682 69.3451C7.32682 69.4251 4.91349 69.4651 2.51349 69.5317C2.12052 69.5317 0.5 69.5317 0 69.5317C0 69.0317 0.818712 67.8838 1.00682 67.5717C12.1668 49.0517 22.6735 30.1317 33.5935 11.4784Z" fill="#C1A17D"/>
</svg>
